<svg xmlns="http://www.w3.org/2000/svg" width="213" height="52" fill="none"><path fill="#F8F9FA" d="M62.272 37V14.6h3.392l11.232 16.864V14.6h3.392V37h-3.392L65.664 20.136V37h-3.392zm28.578.384c-1.557 0-2.944-.341-4.16-1.024a7.542 7.542 0 0 1-2.816-2.912c-.682-1.237-1.023-2.677-1.023-4.32 0-1.664.33-3.125.992-4.384.682-1.259 1.62-2.24 2.816-2.944 1.215-.704 2.623-1.056 4.223-1.056 1.558 0 2.912.352 4.064 1.056a7.236 7.236 0 0 1 2.689 2.752c.64 1.152.96 2.421.96 3.808 0 .213-.011.448-.032.704 0 .235-.011.501-.032.8H86.178c.107 1.536.609 2.71 1.505 3.52.917.79 1.973 1.184 3.167 1.184.96 0 1.76-.213 2.4-.64a4.04 4.04 0 0 0 1.472-1.792h3.393c-.427 1.493-1.28 2.741-2.56 3.744-1.26 1.003-2.827 1.504-4.705 1.504zm0-13.856c-1.13 0-2.133.341-3.007 1.024-.875.661-1.409 1.664-1.6 3.008h8.96c-.065-1.237-.502-2.219-1.313-2.944-.81-.725-1.823-1.088-3.04-1.088zM98.36 37l5.632-7.936-5.632-7.936h3.616l4.256 6.08 4.224-6.08h3.648l-5.632 7.936L114.104 37h-3.648l-4.224-6.08-4.256 6.08h-3.615zm23.881 0c-1.557 0-2.794-.373-3.712-1.12-.917-.768-1.376-2.123-1.376-4.064v-7.84h-2.72v-2.848h2.72l.416-4.032h2.976v4.032h4.48v2.848h-4.48v7.84c0 .875.182 1.483.544 1.824.384.32 1.035.48 1.952.48h1.824V37h-2.624zm11.338.384c-2.006 0-3.659-.49-4.96-1.472-1.302-.981-2.048-2.283-2.24-3.904h3.424c.17.725.576 1.355 1.216 1.888.64.512 1.482.768 2.528.768 1.024 0 1.77-.213 2.24-.64.469-.427.704-.917.704-1.472 0-.81-.331-1.355-.992-1.632-.64-.299-1.536-.565-2.688-.8a21.188 21.188 0 0 1-2.688-.768c-.875-.32-1.611-.768-2.208-1.344-.576-.597-.864-1.397-.864-2.4 0-1.387.533-2.539 1.6-3.456 1.066-.939 2.56-1.408 4.48-1.408 1.77 0 3.2.427 4.288 1.28 1.109.853 1.76 2.059 1.952 3.616h-3.264c-.107-.683-.427-1.216-.96-1.6-.512-.384-1.206-.576-2.08-.576-.854 0-1.515.181-1.984.544-.47.341-.704.79-.704 1.344 0 .555.32.992.96 1.312.661.32 1.525.608 2.592.864 1.066.235 2.048.512 2.944.832.917.299 1.653.747 2.208 1.344.554.597.832 1.472.832 2.624.021 1.45-.544 2.656-1.696 3.616-1.131.96-2.678 1.44-4.64 1.44zm8.759 6.656V21.128h3.04l.352 2.464c.512-.747 1.216-1.408 2.112-1.984.896-.576 2.048-.864 3.456-.864 1.536 0 2.89.363 4.064 1.088 1.173.725 2.09 1.717 2.752 2.976.682 1.259 1.024 2.688 1.024 4.288s-.342 3.03-1.024 4.288a7.624 7.624 0 0 1-2.752 2.944c-1.174.704-2.539 1.056-4.096 1.056-1.238 0-2.336-.245-3.296-.736a5.677 5.677 0 0 1-2.24-2.08v9.472h-3.392zm8.352-9.6c1.45 0 2.645-.49 3.584-1.472.938-1.003 1.408-2.304 1.408-3.904 0-1.045-.214-1.973-.64-2.784a4.71 4.71 0 0 0-1.76-1.888c-.747-.47-1.611-.704-2.592-.704-1.451 0-2.646.501-3.584 1.504-.918 1.003-1.376 2.293-1.376 3.872 0 1.6.458 2.901 1.376 3.904.938.981 2.133 1.472 3.584 1.472zm16.213 2.944c-1.345 0-2.454-.224-3.328-.672-.875-.448-1.526-1.035-1.953-1.76a4.825 4.825 0 0 1-.64-2.432c0-1.536.598-2.752 1.792-3.648 1.195-.896 2.902-1.344 5.12-1.344h4.161v-.288c0-1.237-.342-2.165-1.024-2.784-.662-.619-1.526-.928-2.592-.928-.939 0-1.76.235-2.464.704-.683.448-1.099 1.12-1.248 2.016h-3.393c.107-1.152.491-2.133 1.152-2.944a6.48 6.48 0 0 1 2.56-1.888c1.046-.448 2.187-.672 3.424-.672 2.219 0 3.937.587 5.153 1.76 1.216 1.152 1.824 2.73 1.824 4.736V37h-2.944l-.288-2.72c-.448.875-1.099 1.61-1.953 2.208-.853.597-1.973.896-3.359.896zm.672-2.752c.917 0 1.685-.213 2.303-.64a4.387 4.387 0 0 0 1.473-1.76 6.82 6.82 0 0 0 .672-2.4h-3.776c-1.344 0-2.304.235-2.881.704-.554.47-.831 1.056-.831 1.76 0 .725.266 1.301.799 1.728.555.405 1.302.608 2.241.608zm18.067 2.752c-1.558 0-2.955-.352-4.192-1.056a7.704 7.704 0 0 1-2.88-2.912c-.683-1.259-1.024-2.71-1.024-4.352 0-1.643.341-3.083 1.024-4.32a7.64 7.64 0 0 1 2.88-2.944c1.237-.704 2.634-1.056 4.192-1.056 1.962 0 3.605.512 4.928 1.536 1.344 1.024 2.208 2.41 2.592 4.16h-3.552c-.214-.875-.683-1.557-1.408-2.048-.726-.49-1.579-.736-2.56-.736-.832 0-1.6.213-2.304.64-.704.405-1.27 1.013-1.696 1.824-.427.79-.64 1.77-.64 2.944 0 1.173.213 2.165.64 2.976.426.79.992 1.397 1.696 1.824a4.36 4.36 0 0 0 2.304.64c.981 0 1.834-.245 2.56-.736.725-.49 1.194-1.184 1.408-2.08h3.552c-.363 1.707-1.216 3.083-2.56 4.128s-2.998 1.568-4.96 1.568zm17.342 0c-1.557 0-2.944-.341-4.16-1.024a7.55 7.55 0 0 1-2.816-2.912c-.682-1.237-1.024-2.677-1.024-4.32 0-1.664.331-3.125.992-4.384.683-1.259 1.622-2.24 2.816-2.944 1.216-.704 2.624-1.056 4.224-1.056 1.558 0 2.912.352 4.064 1.056a7.236 7.236 0 0 1 2.688 2.752c.64 1.152.96 2.421.96 3.808 0 .213-.01.448-.032.704 0 .235-.01.501-.032.8h-12.352c.107 1.536.608 2.71 1.504 3.52.918.79 1.974 1.184 3.168 1.184.96 0 1.76-.213 2.4-.64a4.035 4.035 0 0 0 1.472-1.792h3.392c-.426 1.493-1.28 2.741-2.56 3.744-1.258 1.003-2.826 1.504-4.704 1.504zm0-13.856c-1.13 0-2.133.341-3.008 1.024-.874.661-1.408 1.664-1.6 3.008h8.96c-.064-1.237-.501-2.219-1.312-2.944-.81-.725-1.824-1.088-3.04-1.088z"/><path fill="#fff" d="M5.763 45.319a1.793 1.793 0 1 1 .001 3.586 1.793 1.793 0 0 1 0-3.586zM38.382 3.095a2.14 2.14 0 1 1 .001 4.28 2.14 2.14 0 0 1 0-4.28z"/><path fill="#F8F9FA" d="M42.111 23.394c.78 7.001-3.305 13.91-10.184 16.62-6.858 2.698-14.449.391-18.736-5.162l-.023-.105c9.146-2.05 20.9-6.685 28.922-11.388l.021.035zm-.515-2.761.058.113c-8.002 4.174-21.297 9.404-29.989 11.8l-.047-.17c-4.38-8.473-.497-18.958 8.455-22.481 9.254-3.64 19.208 1.912 21.523 10.738z"/><path fill="#FFF68E" d="M42.09 23.36C27.256 32.057 3.367 38.726 1.71 34.513c-.658-1.67 2.563-4.649 8.082-7.897l.106-.01c.089.858.247 1.718.479 2.572l-.13.034c-8.21 4.293-7.685 5.847 1.42 3.334 4.04-1.115 9.429-2.943 15.26-5.237 19.16-7.54 27.783-13.887 13.554-9.989l-.165.087a15.964 15.964 0 0 0-1.392-2.201l.124-.095c13.72-3.023 15.27 1.086 3.043 8.247z"/><path fill="#fff" d="M43.771 36.37a.882.882 0 1 1-.085 1.763.882.882 0 0 1 .085-1.763zM6.416 7a.883.883 0 1 0 0-1.765.883.883 0 0 0 0 1.766z"/><path fill="#000" d="M26.01 41.654c-1.524 0-3.052-.213-4.554-.639a16.812 16.812 0 0 1-8.666-5.853.508.508 0 1 1 .803-.62c3.019 3.91 7.681 6.077 12.448 6.077 1.916 0 3.85-.35 5.7-1.078 6.575-2.589 10.632-9.205 9.866-16.09a.508.508 0 1 1 1.009-.113c.817 7.34-3.502 14.392-10.503 17.148a16.632 16.632 0 0 1-6.103 1.168zm-14.39-8.769a.508.508 0 0 1-.452-.275 16.737 16.737 0 0 1-1.775-5.95 16.803 16.803 0 0 1 2.293-10.292 16.535 16.535 0 0 1 8.202-6.946c6.955-2.736 14.95-.483 19.441 5.48a16.778 16.778 0 0 1 2.202 3.94c.247.629.424 1.157.557 1.662a.508.508 0 1 1-.983.258 13.695 13.695 0 0 0-.52-1.549 15.704 15.704 0 0 0-.718-1.569 15.513 15.513 0 0 0-1.35-2.132C34.3 9.913 26.793 7.798 20.26 10.367c-6.522 2.567-10.576 9.224-9.857 16.188a15.699 15.699 0 0 0 1.667 5.589.508.508 0 0 1-.45.74z"/><path fill="#000" d="M5.515 36.312c-2.15 0-3.812-.426-4.279-1.613-.96-2.44 3.982-5.98 8.298-8.52a.508.508 0 1 1 .515.876c-6.43 3.784-8.257 6.283-7.868 7.273.392.995 3.456 1.577 10.803-.06l.031-.007.047-.01c4.443-.997 9.548-2.608 14.763-4.66 5.24-2.063 10.084-4.369 14.008-6.67 6.523-3.82 8.378-6.342 7.985-7.34-.388-.986-3.413-1.57-10.661.027a.508.508 0 0 1-.219-.992c4.866-1.072 10.868-1.84 11.825.593.967 2.457-4.043 6.027-8.416 8.588-3.969 2.327-8.862 4.657-14.15 6.739-5.265 2.072-10.423 3.7-14.918 4.707l-.01.002-.072.016c-2.54.566-5.388 1.051-7.682 1.051z"/><path fill="#000" d="M5.504 34.26c-.872 0-1.341-.207-1.514-.644-.235-.597.227-1.257 1.543-2.206 1.019-.735 2.526-1.626 4.48-2.647a.508.508 0 0 1 .47.9c-4.208 2.2-5.22 3.212-5.46 3.547.406.08 1.853.132 6.509-1.153 4.19-1.156 9.591-3.01 15.209-5.22 5.617-2.21 10.83-4.534 14.68-6.542 4.29-2.235 5.315-3.26 5.557-3.597-.402-.08-1.824-.13-6.363 1.113a.508.508 0 1 1-.268-.98c2.112-.578 3.81-.95 5.048-1.104 1.6-.199 2.381-.03 2.615.565.236.601-.233 1.266-1.568 2.225-1.035.744-2.566 1.645-4.551 2.679-3.88 2.024-9.13 4.363-14.778 6.586-5.65 2.223-11.088 4.089-15.311 5.254-2.155.595-3.888.978-5.15 1.14a9.258 9.258 0 0 1-1.148.085zM38.382 7.883a2.65 2.65 0 0 1-2.648-2.648 2.65 2.65 0 0 1 2.648-2.648 2.65 2.65 0 0 1 2.648 2.648 2.65 2.65 0 0 1-2.648 2.648zm0-4.28c-.9 0-1.632.732-1.632 1.632 0 .9.732 1.632 1.632 1.632.9 0 1.632-.732 1.632-1.632 0-.9-.732-1.632-1.632-1.632zM5.763 49.413a2.304 2.304 0 0 1-2.3-2.302c0-1.268 1.032-2.3 2.3-2.3a2.304 2.304 0 0 1 2.302 2.3 2.304 2.304 0 0 1-2.302 2.302zm0-3.586a1.286 1.286 0 0 0 0 2.57c.71 0 1.286-.577 1.286-1.286 0-.708-.577-1.284-1.286-1.284z"/></svg>